<svg width="27" height="27" viewBox="0 0 27 27" fill="none" xmlns="http://www.w3.org/2000/svg">
<path d="M10.5542 10.5541C12.5969 8.5114 12.9693 5.45061 13.0372 0.00592143C5.9346 0.214995 0.215 5.9346 0.00592169 13.0372C5.45061 12.9693 8.5114 12.5969 10.5542 10.5541Z" fill="black"/>
<path d="M13.8428 0.00592132C13.9107 5.4506 14.2831 8.51139 16.3258 10.5541C18.3686 12.5969 21.4294 12.9693 26.8741 13.0372C26.665 5.93459 20.9454 0.214993 13.8428 0.00592132Z" fill="black"/>
<path fill-rule="evenodd" clip-rule="evenodd" d="M13.0372 0L13.0372 0.00592143C13.171 0.00198301 13.3053 0 13.44 0C13.5747 0 13.709 0.00198298 13.8428 0.00592132L13.8428 0H13.44H13.0372ZM0 13.0372L0.00592169 13.0372C0.0019831 13.171 0 13.3052 0 13.44V13.0372ZM0.00592152 13.8428C0.00198304 13.709 0 13.5747 0 13.44V13.8428L0.00592152 13.8428ZM13.0372 26.8741L13.0373 26.88H13.44H13.8428L13.8428 26.8741C13.709 26.878 13.5747 26.88 13.44 26.88C13.3053 26.88 13.171 26.878 13.0372 26.8741ZM26.88 13.8427L26.8741 13.8428C26.878 13.709 26.88 13.5747 26.88 13.44V13.8427ZM26.88 13.0372V13.44C26.88 13.3052 26.878 13.171 26.8741 13.0372L26.88 13.0372Z" fill="white"/>
<path d="M0.00592152 13.8428C0.214997 20.9454 5.93461 26.665 13.0372 26.8741C12.9693 21.4294 12.5969 18.3686 10.5542 16.3258C8.51141 14.2831 5.45062 13.9107 0.00592152 13.8428Z" fill="black"/>
<path d="M16.3258 16.3258C14.2831 18.3686 13.9107 21.4294 13.8428 26.8741C20.9454 26.665 26.665 20.9454 26.8741 13.8428C21.4294 13.9107 18.3686 14.2831 16.3258 16.3258Z" fill="black"/>
</svg>
