<?xml version="1.0" encoding="UTF-8"?>
<!DOCTYPE svg PUBLIC "-//W3C//DTD SVG 1.1//EN" "http://www.w3.org/Graphics/SVG/1.1/DTD/svg11.dtd">
<svg xmlns="http://www.w3.org/2000/svg" version="1.1" width="3585px" height="3585px" style="shape-rendering:geometricPrecision; text-rendering:geometricPrecision; image-rendering:optimizeQuality; fill-rule:evenodd; clip-rule:evenodd" xmlns:xlink="http://www.w3.org/1999/xlink">
<g><path style="opacity:0.995" fill="#046fb7" d="M 1210.5,494.5 C 1217.01,494.07 1223.34,494.903 1229.5,497C 1431.13,611.54 1609.63,755.706 1765,929.5C 1880.18,1061.4 1975.18,1207.07 2050,1366.5C 2149.73,1243.41 2264.57,1137.25 2394.5,1048C 2440.32,1016.58 2487.32,986.917 2535.5,959C 2540.52,957.079 2545.52,957.079 2550.5,959C 2674.62,1029.91 2788.95,1114.24 2893.5,1212C 3149.7,1458.55 3303.87,1758.71 3356,2112.5C 3358.82,2129.76 3360.98,2147.1 3362.5,2164.5C 3419.17,2155.42 3475.67,2145.42 3532,2134.5C 3547.66,2134.49 3559.99,2140.83 3569,2153.5C 3571.8,2157.44 3573.8,2161.78 3575,2166.5C 3576.64,2203.79 3576.97,2241.12 3576,2278.5C 3568.96,2424.2 3561.3,2569.86 3553,2715.5C 3549.01,2736.65 3539.84,2755.15 3525.5,2771C 3523.73,2772.44 3521.73,2773.44 3519.5,2774C 3390.85,2787.47 3261.85,2794.8 3132.5,2796C 3068,2855.58 2992,2892.24 2904.5,2906C 2869.51,2911.43 2834.51,2916.76 2799.5,2922C 2770.46,2927.09 2741.79,2933.76 2713.5,2942C 2692.22,2947.33 2670.88,2947.66 2649.5,2943C 2612.7,2932.91 2594.03,2908.75 2593.5,2870.5C 2594.66,2839.01 2607,2812.84 2630.5,2792C 2727.05,2798.5 2823.72,2800.5 2920.5,2798C 2941.18,2797.33 2961.85,2796.33 2982.5,2795C 2912.83,2793.19 2843.16,2789.86 2773.5,2785C 2681.41,2777.37 2589.41,2768.87 2497.5,2759.5C 2497.93,2786.6 2494.76,2813.26 2488,2839.5C 2480.52,2870.97 2461.69,2892.47 2431.5,2904C 2388.37,2919.8 2344.37,2922.8 2299.5,2913C 2271.91,2905.96 2248.41,2892.13 2229,2871.5C 2217.86,2856.11 2214.52,2839.11 2219,2820.5C 2224.27,2795.44 2237.77,2776.27 2259.5,2763C 2264.34,2760.08 2269.34,2757.41 2274.5,2755C 2288.49,2749.39 2302.49,2743.89 2316.5,2738.5C 2148.53,2716.1 1980.87,2691.6 1813.5,2665C 1760.66,2657.57 1707.66,2651.91 1654.5,2648C 1681.88,2659.93 1706.04,2676.43 1727,2697.5C 1738.6,2711.02 1747.93,2726.02 1755,2742.5C 1761.63,2759.49 1762.13,2776.66 1756.5,2794C 1768.27,2823.98 1759.93,2846.31 1731.5,2861C 1700.74,2871.63 1669.07,2877.63 1636.5,2879C 1591.21,2881.16 1546.21,2878.49 1501.5,2871C 1467.48,2865.91 1438.31,2851.41 1414,2827.5C 1400.81,2812.46 1391.81,2795.13 1387,2775.5C 1381.13,2756.93 1377.63,2737.93 1376.5,2718.5C 1377.15,2704.28 1378.98,2690.28 1382,2676.5C 1366.18,2704.34 1343.35,2724.17 1313.5,2736C 1302.77,2740.46 1291.77,2744.13 1280.5,2747C 1194.78,2751.38 1109.11,2756.71 1023.5,2763C 1021.42,2763.19 1019.42,2763.69 1017.5,2764.5C 1044.48,2815.16 1048.31,2867.5 1029,2921.5C 1027.23,2931.44 1025.89,2941.44 1025,2951.5C 1020.66,2972.84 1008.16,2987.01 987.5,2994C 980.901,2995.5 974.234,2995.83 967.5,2995C 960.167,2993 952.833,2991 945.5,2989C 936.353,2987.49 928.02,2989.49 920.5,2995C 914.003,3000.09 907.003,3004.42 899.5,3008C 888.264,3010.93 876.93,3011.26 865.5,3009C 822.242,3000.47 781.242,2985.8 742.5,2965C 686.832,2931.88 656.998,2882.71 653,2817.5C 651.369,2792.09 652.869,2766.92 657.5,2742C 640.439,2736.27 624.105,2729.1 608.5,2720.5C 748.376,2688.29 889.376,2661.79 1031.5,2641C 958.076,2643.31 885.076,2650.31 812.5,2662C 656.818,2686.42 502.818,2718.75 350.5,2759C 284.579,2777.2 219.579,2798.2 155.5,2822C 126.368,2833.23 97.7017,2845.57 69.5,2859C 58.5239,2860.34 48.1906,2858.34 38.5,2853C 28.0781,2846.91 19.2448,2839.08 12,2829.5C 10.2752,2826.33 8.94186,2822.99 8,2819.5C 7.33333,2647.17 7.33333,2474.83 8,2302.5C 8.83665,2289.32 12.5033,2276.99 19,2265.5C 22.1667,2261 26,2257.17 30.5,2254C 56.2448,2240.96 82.5781,2229.29 109.5,2219C 145.198,2205.77 181.031,2192.93 217,2180.5C 210.185,1844.76 288.519,1530.43 452,1237.5C 568.466,1033.62 717.966,856.789 900.5,707C 997.855,627.486 1101.19,556.652 1210.5,494.5 Z M 1217.5,761.5 C 1332.3,863.127 1438.63,972.627 1536.5,1090C 1499.57,1094.92 1464.24,1089.58 1430.5,1074C 1410.95,1064.39 1391.29,1055.06 1371.5,1046C 1337.45,1034.27 1302.45,1026.94 1266.5,1024C 1156.32,1010.77 1053.65,1032.43 958.5,1089C 951.947,1091.7 945.113,1093.2 938,1093.5C 871.221,1086.54 812.054,1104.37 760.5,1147C 717.092,1185.09 683.592,1230.59 660,1283.5C 637.02,1335.44 620.687,1389.44 611,1445.5C 611.756,1423.54 614.756,1401.88 620,1380.5C 630.745,1336.26 645.079,1293.26 663,1251.5C 687.183,1202.97 720.017,1161.14 761.5,1126C 806.819,1092.5 857.819,1074.33 914.5,1071.5C 1007.98,961.015 1108.98,857.682 1217.5,761.5 Z M 1194.5,1105.5 C 1246.4,1104.25 1295.4,1115.41 1341.5,1139C 1375.62,1159.65 1382.79,1187.48 1363,1222.5C 1350.06,1241.37 1336.4,1259.7 1322,1277.5C 1278.59,1350.97 1271.92,1427.64 1302,1507.5C 1308.82,1523.14 1317.15,1537.81 1327,1551.5C 1342.96,1571.79 1359.29,1591.79 1376,1611.5C 1393.4,1632.63 1406.4,1656.3 1415,1682.5C 1424.93,1724.64 1414.43,1760.81 1383.5,1791C 1364.4,1806.82 1342.4,1815.82 1317.5,1818C 1304.83,1818.67 1292.17,1818.67 1279.5,1818C 1272.94,1817.63 1266.61,1816.3 1260.5,1814C 1259.43,1813.26 1258.76,1812.26 1258.5,1811C 1259.67,1806.83 1261.5,1803 1264,1799.5C 1280.39,1777.45 1296.39,1755.11 1312,1732.5C 1324.7,1713 1330.03,1691.67 1328,1668.5C 1322.65,1642.28 1307.15,1625.45 1281.5,1618C 1258.73,1613.58 1235.73,1611.42 1212.5,1611.5C 1188.76,1611.92 1165.09,1613.42 1141.5,1616C 1106.78,1623.77 1088.45,1645.43 1086.5,1681C 1087.59,1701.94 1094.42,1720.77 1107,1737.5C 1125.14,1761.48 1142.31,1786.14 1158.5,1811.5C 1158.29,1812.09 1157.96,1812.59 1157.5,1813C 1127.3,1821.7 1096.96,1822.37 1066.5,1815C 1029.05,1796.85 1005.55,1767.35 996,1726.5C 992.107,1704.31 994.773,1682.98 1004,1662.5C 1009.91,1651 1016.58,1640 1024,1629.5C 1043,1607.17 1062,1584.83 1081,1562.5C 1123.14,1504.94 1139.14,1440.61 1129,1369.5C 1124.27,1344.04 1115.6,1320.04 1103,1297.5C 1086.25,1271.66 1069.25,1246 1052,1220.5C 1035.81,1183.72 1044.98,1155.22 1079.5,1135C 1115.68,1116.34 1154.01,1106.5 1194.5,1105.5 Z M 2542.5,1178.5 C 2630.46,1256.29 2712.46,1339.79 2788.5,1429C 2751.5,1455.65 2717.17,1485.65 2685.5,1519C 2684.17,1519.67 2682.83,1520.33 2681.5,1521C 2668.86,1517.57 2656.2,1513.9 2643.5,1510C 2563.33,1490.04 2484.33,1493.87 2406.5,1521.5C 2405.06,1521.28 2403.73,1520.78 2402.5,1520C 2370.3,1486.12 2335.3,1455.79 2297.5,1429C 2373.59,1340.08 2455.26,1256.58 2542.5,1178.5 Z M 984.5,1386.5 C 1007.13,1387.29 1017.63,1398.96 1016,1421.5C 1008.85,1439.33 996.015,1445.83 977.5,1441C 959.439,1430.92 955.273,1416.76 965,1398.5C 970.269,1392.29 976.769,1388.29 984.5,1386.5 Z M 1427.5,1386.5 C 1446.46,1386.47 1457.46,1395.8 1460.5,1414.5C 1456.22,1437.13 1442.89,1445.97 1420.5,1441C 1405.29,1433.08 1400.13,1420.92 1405,1404.5C 1409.63,1394.79 1417.13,1388.79 1427.5,1386.5 Z M 2187.5,2019.5 C 2173.09,2003.71 2161.92,1985.71 2154,1965.5C 2146.65,1945.75 2141.65,1925.42 2139,1904.5C 2130.01,1830.47 2140.01,1759.13 2169,1690.5C 2176.04,1675.58 2184.2,1661.42 2193.5,1648C 2175.5,1590.15 2168.66,1530.99 2173,1470.5C 2174.52,1449.04 2177.02,1427.71 2180.5,1406.5C 2202.84,1414.5 2222.84,1426.33 2240.5,1442C 2275.22,1472.77 2297.89,1510.77 2308.5,1556C 2306.61,1567.1 2300.95,1575.76 2291.5,1582C 2227.2,1624.35 2184.7,1682.85 2164,1757.5C 2148.19,1812.69 2144.19,1868.69 2152,1925.5C 2158.01,1959.15 2169.84,1990.49 2187.5,2019.5 Z M 2901.5,1407.5 C 2902.59,1407.62 2903.25,1408.29 2903.5,1409.5C 2918.08,1487.67 2914.58,1565 2893,1641.5C 2889.91,1651.76 2886.25,1661.76 2882,1671.5C 2867.91,1652.99 2853.57,1634.65 2839,1616.5C 2835.8,1612.96 2832.3,1609.8 2828.5,1607C 2815.44,1598.61 2802.94,1589.44 2791,1579.5C 2779.09,1566.62 2776.43,1551.95 2783,1535.5C 2805.06,1476.61 2844.56,1433.94 2901.5,1407.5 Z M 920.5,1419.5 C 924.102,1460.94 946.602,1483.6 988,1487.5C 1017.16,1486.59 1037.82,1472.93 1050,1446.5C 1052.64,1438.32 1054.64,1429.99 1056,1421.5C 1067.7,1453 1061.53,1480.5 1037.5,1504C 1014.06,1523.24 988.062,1527.57 959.5,1517C 925.688,1500.21 911.188,1473.05 916,1435.5C 917.207,1430.05 918.707,1424.72 920.5,1419.5 Z M 1363.5,1420.5 C 1365.58,1449.86 1379.92,1470.69 1406.5,1483C 1442.89,1494.21 1471.06,1483.71 1491,1451.5C 1495.51,1441.65 1498.17,1431.32 1499,1420.5C 1512.01,1457.47 1502.84,1487.63 1471.5,1511C 1435.01,1530.63 1402.51,1525.47 1374,1495.5C 1357.22,1472.4 1353.72,1447.4 1363.5,1420.5 Z M 1787.5,1457.5 C 1856.45,1581.49 1906.61,1712.82 1938,1851.5C 1954,1925.32 1962.5,1999.98 1963.5,2075.5C 1848.24,2059.82 1732.57,2047.99 1616.5,2040C 1583.18,2038.11 1549.84,2036.44 1516.5,2035C 1573.79,2031.98 1631.13,2030.32 1688.5,2030C 1702.05,2006.41 1715.21,1982.57 1728,1958.5C 1749.86,1926.8 1769.19,1893.47 1786,1858.5C 1805.03,1815.38 1817.36,1770.38 1823,1723.5C 1831.47,1665.33 1828.8,1607.67 1815,1550.5C 1806.93,1519.12 1797.76,1488.12 1787.5,1457.5 Z M 591.5,1569.5 C 592.351,1608.34 592.517,1647.34 592,1686.5C 595.274,1748.26 610.44,1806.93 637.5,1862.5C 599.111,1910.57 567.278,1962.9 542,2019.5C 530.58,2045.59 522.08,2072.59 516.5,2100.5C 501.832,2103.5 487.165,2106.5 472.5,2109.5C 470.418,1998.82 484.252,1890.15 514,1783.5C 534.591,1710.22 560.424,1638.89 591.5,1569.5 Z M 2938.5,1630.5 C 3014.14,1740.45 3072.3,1859.45 3113,1987.5C 3133.23,2053.14 3146.73,2120.14 3153.5,2188.5C 3123.85,2190.59 3094.18,2192.09 3064.5,2193C 3084.21,2176.07 3094.71,2154.57 3096,2128.5C 3100.77,2073.21 3080.6,2029.71 3035.5,1998C 3012.45,1982.31 2987.45,1970.64 2960.5,1963C 2946.68,1959.52 2933.02,1960.02 2919.5,1964.5C 2924,1944.17 2927.83,1923.5 2931,1902.5C 2936.97,1849.3 2932.64,1796.97 2918,1745.5C 2917.33,1739.83 2917.33,1734.17 2918,1728.5C 2926.11,1696.06 2932.95,1663.39 2938.5,1630.5 Z M 796.5,1653.5 C 809.334,1653.54 821.334,1656.71 832.5,1663C 847.722,1673.89 861.389,1686.55 873.5,1701C 883.006,1709.5 894.172,1714 907,1714.5C 918.806,1713.55 930.639,1713.22 942.5,1713.5C 944.486,1738.29 951.986,1761.29 965,1782.5C 971.968,1794.3 979.135,1805.97 986.5,1817.5C 962.832,1818.75 939.166,1818.75 915.5,1817.5C 900.758,1817.35 887.424,1821.52 875.5,1830C 864.887,1841.95 853.554,1853.28 841.5,1864C 816.856,1882.09 791.523,1883.09 765.5,1867C 744.453,1851.52 736.62,1831.02 742,1805.5C 745.532,1796.1 749.865,1787.1 755,1778.5C 758.333,1770.5 758.333,1762.5 755,1754.5C 751.063,1747.63 747.397,1740.63 744,1733.5C 734.927,1702.13 744.427,1677.97 772.5,1661C 780.233,1657.24 788.233,1654.74 796.5,1653.5 Z M 1610.5,1653.5 C 1641.41,1654.03 1662.25,1668.69 1673,1697.5C 1675.19,1708.58 1674.86,1719.58 1672,1730.5C 1666.81,1743.05 1660.98,1755.21 1654.5,1767C 1660.1,1777.03 1665.6,1787.19 1671,1797.5C 1680.37,1828.05 1671.87,1852.22 1645.5,1870C 1621.39,1882.7 1598.39,1881.03 1576.5,1865C 1564.53,1855.37 1553.53,1844.7 1543.5,1833C 1532.18,1822.83 1518.84,1817.67 1503.5,1817.5C 1480.17,1818.77 1456.84,1818.77 1433.5,1817.5C 1431.74,1815.81 1431.24,1813.81 1432,1811.5C 1447.7,1790.43 1460.04,1767.43 1469,1742.5C 1470.97,1733.65 1472.8,1724.81 1474.5,1716C 1489.39,1714.16 1504.39,1713.16 1519.5,1713C 1525.99,1711.42 1531.99,1708.75 1537.5,1705C 1550.56,1691.27 1564.23,1678.27 1578.5,1666C 1588.32,1659.34 1598.99,1655.18 1610.5,1653.5 Z M 2743.5,1836.5 C 2750.39,1824.06 2753.05,1810.73 2751.5,1796.5C 2736.84,1799.42 2727.34,1793.76 2723,1779.5C 2722.23,1770.97 2725.4,1764.3 2732.5,1759.5C 2733.61,1758.28 2733.78,1756.94 2733,1755.5C 2714.51,1737.51 2695.84,1737.18 2677,1754.5C 2666.97,1769.32 2663.3,1785.65 2666,1803.5C 2668.62,1821.25 2676.79,1835.75 2690.5,1847C 2681.83,1847.67 2673.17,1847.67 2664.5,1847C 2654.24,1844.21 2643.91,1843.88 2633.5,1846C 2630.3,1846.85 2627.47,1848.35 2625,1850.5C 2624.75,1845.49 2625.08,1840.49 2626,1835.5C 2628.08,1823.18 2630.08,1810.85 2632,1798.5C 2642.44,1757.4 2668.77,1735.06 2711,1731.5C 2745.23,1733.6 2769.9,1749.93 2785,1780.5C 2787.34,1786.69 2789.18,1793.03 2790.5,1799.5C 2789.09,1808.15 2784.75,1814.99 2777.5,1820C 2767.08,1827.38 2755.75,1832.88 2743.5,1836.5 Z M 2365.5,1732.5 C 2400.6,1729.3 2427.77,1742.3 2447,1771.5C 2450.98,1778.43 2453.98,1785.76 2456,1793.5C 2459.7,1812.4 2462.37,1831.4 2464,1850.5C 2457.26,1845.91 2449.76,1843.91 2441.5,1844.5C 2434.11,1844.79 2426.77,1845.62 2419.5,1847C 2412.5,1847.67 2405.5,1847.67 2398.5,1847C 2417.38,1830.88 2425.38,1810.38 2422.5,1785.5C 2404.11,1788.94 2394.94,1781.28 2395,1762.5C 2396.55,1757.08 2399.38,1752.41 2403.5,1748.5C 2392.15,1740.2 2380.15,1739.36 2367.5,1746C 2347.26,1759.81 2337.26,1779.14 2337.5,1804C 2337.49,1809.22 2337.99,1814.39 2339,1819.5C 2340.64,1825.76 2342.64,1831.76 2345,1837.5C 2328.73,1832.88 2314.73,1824.54 2303,1812.5C 2299.21,1807.79 2297.87,1802.45 2299,1796.5C 2307.95,1761.38 2330.12,1740.05 2365.5,1732.5 Z M 2539.5,1847.5 C 2558.84,1847.25 2572.34,1855.91 2580,1873.5C 2585.82,1891.64 2592.82,1909.31 2601,1926.5C 2619.32,1956.44 2645.82,1975.27 2680.5,1983C 2703.48,1993.13 2713.32,2010.63 2710,2035.5C 2704.83,2050 2695,2059.83 2680.5,2065C 2666.62,2069.07 2652.95,2073.74 2639.5,2079C 2629.24,2082.32 2618.74,2084.49 2608,2085.5C 2586.19,2083.68 2572.19,2072.35 2566,2051.5C 2565.33,2049.83 2565.33,2048.17 2566,2046.5C 2568.08,2042.42 2570.91,2038.92 2574.5,2036C 2582,2031.41 2589.67,2027.08 2597.5,2023C 2611.82,2012.58 2615.65,1999.08 2609,1982.5C 2601.33,1969.58 2589.83,1963.24 2574.5,1963.5C 2563.31,1963.69 2553.47,1967.35 2545,1974.5C 2527.55,1962.29 2509.05,1960.45 2489.5,1969C 2474.93,1981.06 2471.43,1995.89 2479,2013.5C 2481.17,2017 2484,2019.83 2487.5,2022C 2495.32,2025.74 2502.99,2029.74 2510.5,2034C 2515.22,2038.53 2518.88,2043.7 2521.5,2049.5C 2515.59,2072.07 2500.92,2084.07 2477.5,2085.5C 2471.05,2084.98 2464.71,2083.81 2458.5,2082C 2438.64,2074.93 2418.64,2068.27 2398.5,2062C 2382.95,2054.92 2375.28,2042.75 2375.5,2025.5C 2376.63,2008.73 2384.3,1995.89 2398.5,1987C 2408.87,1982.21 2419.53,1978.21 2430.5,1975C 2463.09,1960.41 2485.26,1936.24 2497,1902.5C 2501.17,1888.65 2506.5,1875.32 2513,1862.5C 2520.23,1854.47 2529.06,1849.47 2539.5,1847.5 Z M 1037.5,1891.5 C 1042.76,1895.26 1047.59,1899.59 1052,1904.5C 1068.67,1927.17 1085.33,1949.83 1102,1972.5C 1119.23,1995.87 1142.4,2008.37 1171.5,2010C 1195.17,2010.67 1218.83,2010.67 1242.5,2010C 1269.92,2009.2 1292.42,1998.37 1310,1977.5C 1327.28,1953.22 1344.95,1929.22 1363,1905.5C 1366.63,1900.51 1371.46,1898.35 1377.5,1899C 1382.35,1903.17 1385.85,1908.34 1388,1914.5C 1395.34,1939.53 1403.68,1964.19 1413,1988.5C 1419.19,2003.06 1427.03,2016.56 1436.5,2029C 1324.83,2025.39 1213.17,2025.73 1101.5,2030C 1056.14,2032.14 1010.8,2034.47 965.5,2037C 984.432,2019.66 998.266,1998.83 1007,1974.5C 1016.31,1946.4 1026.47,1918.74 1037.5,1891.5 Z M 1141.5,1912.5 C 1189.15,1913.85 1236.82,1914.68 1284.5,1915C 1286.85,1915.58 1287.85,1917.08 1287.5,1919.5C 1276.31,1948.13 1255.14,1961.8 1224,1960.5C 1206.85,1959.72 1189.68,1959.22 1172.5,1959C 1164.57,1957.91 1157.23,1955.24 1150.5,1951C 1142.5,1943.15 1135.33,1934.65 1129,1925.5C 1126.48,1921.1 1127.31,1917.6 1131.5,1915C 1134.95,1914.12 1138.29,1913.28 1141.5,1912.5 Z M 2866.5,2007.5 C 2851.14,2031.04 2839.3,2056.37 2831,2083.5C 2827.45,2109.9 2837.95,2128.07 2862.5,2138C 2868.09,2139.29 2873.76,2139.79 2879.5,2139.5C 2886.87,2168.69 2905.7,2183.69 2936,2184.5C 2946.08,2184.86 2955.24,2182.19 2963.5,2176.5C 2966.49,2183.31 2970.16,2189.81 2974.5,2196C 2854.45,2197.74 2734.79,2192.07 2615.5,2179C 2619.25,2174.58 2623.58,2170.92 2628.5,2168C 2679.97,2168.87 2729.3,2159.2 2776.5,2139C 2791.45,2131.69 2805.62,2123.19 2819,2113.5C 2817.74,2105.59 2817.41,2097.59 2818,2089.5C 2827.63,2063.24 2840.63,2038.9 2857,2016.5C 2860.04,2013.3 2863.2,2010.3 2866.5,2007.5 Z M 2219.5,2067.5 C 2240.77,2093.61 2266.1,2114.77 2295.5,2131C 2270.24,2126.45 2244.9,2121.95 2219.5,2117.5C 2219.5,2100.83 2219.5,2084.17 2219.5,2067.5 Z M 2542.5,2095.5 C 2543.92,2095.71 2545.26,2096.21 2546.5,2097C 2556.04,2106.27 2567.04,2113.27 2579.5,2118C 2589.8,2120.48 2599.8,2119.64 2609.5,2115.5C 2609.83,2116 2610.17,2116.5 2610.5,2117C 2602.25,2135.52 2589.58,2150.18 2572.5,2161C 2551.44,2172.81 2530.77,2172.14 2510.5,2159C 2494.31,2147.98 2482.31,2133.48 2474.5,2115.5C 2474.67,2115.17 2474.83,2114.83 2475,2114.5C 2494.3,2121.92 2512.13,2119.42 2528.5,2107C 2533.07,2102.92 2537.73,2099.09 2542.5,2095.5 Z M 1423.5,2198.5 C 1431.17,2198.5 1438.83,2198.5 1446.5,2198.5C 1446.5,2301.17 1446.5,2403.83 1446.5,2506.5C 1424.5,2506.5 1402.5,2506.5 1380.5,2506.5C 1380.67,2455.83 1380.5,2405.17 1380,2354.5C 1336.93,2404.98 1294.1,2455.65 1251.5,2506.5C 1243.86,2507.5 1236.2,2507.83 1228.5,2507.5C 1228.5,2404.83 1228.5,2302.17 1228.5,2199.5C 1250.5,2199.5 1272.5,2199.5 1294.5,2199.5C 1294.33,2250.17 1294.5,2300.83 1295,2351.5C 1338.04,2300.63 1380.88,2249.63 1423.5,2198.5 Z M 1034.5,2199.5 C 1078.33,2197.49 1108.5,2216.83 1125,2257.5C 1138.22,2293.25 1138.89,2329.25 1127,2365.5C 1116.08,2396.43 1094.91,2416.26 1063.5,2425C 1043.57,2427.54 1023.57,2429.38 1003.5,2430.5C 1004.29,2456.84 1005.29,2483.18 1006.5,2509.5C 985.179,2511.02 963.845,2512.36 942.5,2513.5C 938.196,2411.48 933.529,2309.48 928.5,2207.5C 964.011,2205.2 999.344,2202.54 1034.5,2199.5 Z M 1979.5,2214.5 C 1988.9,2215.2 1998.07,2216.86 2007,2219.5C 2027.33,2304.48 2047.49,2389.48 2067.5,2474.5C 2075.51,2475.53 2083.51,2476.69 2091.5,2478C 2092.66,2479.01 2093.32,2480.34 2093.5,2482C 2089.71,2514.16 2086.04,2546.33 2082.5,2578.5C 2065.54,2575.89 2048.54,2573.55 2031.5,2571.5C 2032.17,2560.8 2033.17,2550.14 2034.5,2539.5C 2034.39,2538.56 2034.06,2537.72 2033.5,2537C 1984.49,2529.55 1935.49,2522.05 1886.5,2514.5C 1885.35,2514.82 1884.52,2515.48 1884,2516.5C 1882.87,2526.85 1881.7,2537.18 1880.5,2547.5C 1863.14,2545.35 1845.81,2543.02 1828.5,2540.5C 1832.24,2506.8 1836.24,2473.14 1840.5,2439.5C 1847.96,2440.97 1855.46,2442.3 1863,2443.5C 1864.11,2443.41 1865.11,2443.08 1866,2442.5C 1904.12,2366.6 1941.95,2290.6 1979.5,2214.5 Z M 710.5,2233.5 C 757.892,2327.28 805.059,2421.28 852,2515.5C 853.156,2519.42 853.656,2523.42 853.5,2527.5C 833.255,2529.56 813.088,2532.23 793,2535.5C 792.228,2535.36 791.561,2535.02 791,2534.5C 785.333,2523.17 779.667,2511.83 774,2500.5C 772.6,2499.88 771.1,2499.55 769.5,2499.5C 737.17,2503.93 704.837,2508.26 672.5,2512.5C 669.148,2525.91 665.481,2539.24 661.5,2552.5C 641.928,2555.96 622.262,2558.96 602.5,2561.5C 601.006,2561.29 599.839,2560.62 599,2559.5C 598.333,2556.17 598.333,2552.83 599,2549.5C 627.489,2445.88 655.822,2342.21 684,2238.5C 692.868,2236.5 701.702,2234.83 710.5,2233.5 Z M 351.5,2280.5 C 352.873,2280.34 354.207,2280.51 355.5,2281C 396.048,2353.93 436.214,2427.09 476,2500.5C 476.561,2501.02 477.228,2501.36 478,2501.5C 486.396,2499.25 494.896,2497.59 503.5,2496.5C 507.274,2529.25 511.607,2561.92 516.5,2594.5C 499.59,2598.75 482.59,2602.75 465.5,2606.5C 463.209,2596.29 461.709,2585.96 461,2575.5C 460.326,2574.42 459.326,2573.75 458,2573.5C 408.883,2584.16 359.716,2594.49 310.5,2604.5C 311.598,2614.69 312.932,2624.86 314.5,2635C 314.167,2636.17 313.833,2637.33 313.5,2638.5C 296.581,2642.55 279.581,2646.22 262.5,2649.5C 258.701,2616.94 254.367,2584.44 249.5,2552C 249.645,2551.23 249.978,2550.56 250.5,2550C 258.167,2548.33 265.833,2546.67 273.5,2545C 274.578,2544.33 275.245,2543.33 275.5,2542C 293.108,2456.46 310.774,2370.96 328.5,2285.5C 336.416,2284.45 344.083,2282.79 351.5,2280.5 Z M 2300.5,2280.5 C 2363.05,2281.36 2406.22,2310.69 2430,2368.5C 2446.33,2420.28 2443.99,2471.28 2423,2521.5C 2392.14,2585.85 2341.97,2609.68 2272.5,2593C 2236.69,2579.52 2210.86,2555.36 2195,2520.5C 2179.53,2481.93 2176.19,2442.27 2185,2401.5C 2191.61,2364.1 2208.78,2332.6 2236.5,2307C 2255.42,2292.2 2276.75,2283.36 2300.5,2280.5 Z M 2528.5,2318.5 C 2588.47,2324.76 2648.47,2330.76 2708.5,2336.5C 2707.46,2359.52 2706.12,2382.52 2704.5,2405.5C 2665.54,2401.17 2626.54,2397.17 2587.5,2393.5C 2586.46,2406.49 2585.46,2419.49 2584.5,2432.5C 2601.49,2434.33 2618.49,2436.17 2635.5,2438C 2680.82,2446.65 2707.32,2473.82 2715,2519.5C 2720.7,2557.4 2710.2,2589.9 2683.5,2617C 2663.53,2632.66 2640.86,2638.66 2615.5,2635C 2579.86,2631.1 2544.2,2627.6 2508.5,2624.5C 2515.01,2522.47 2521.67,2420.47 2528.5,2318.5 Z M 1662.5,2325.5 C 1685.59,2324.12 1700.42,2334.45 1707,2356.5C 1708.56,2379.22 1698.39,2393.72 1676.5,2400C 1653.39,2401.87 1638.56,2391.7 1632,2369.5C 1630.56,2346.7 1640.73,2332.03 1662.5,2325.5 Z M 3205.5,2327.5 C 3267.34,2329.16 3309.5,2358.83 3332,2416.5C 3349.28,2467.12 3348.62,2517.45 3330,2567.5C 3302.73,2626.22 3256.9,2651.72 3192.5,2644C 3145.43,2631.6 3113.6,2602.44 3097,2556.5C 3084.86,2518.19 3082.2,2479.19 3089,2439.5C 3097.49,2395.05 3121.33,2361.88 3160.5,2340C 3174.89,2333.16 3189.89,2328.99 3205.5,2327.5 Z M 2815.5,2340.5 C 2853.17,2342.11 2890.84,2343.94 2928.5,2346C 2965,2350.83 2990.17,2370.33 3004,2404.5C 3018.29,2442.96 3017.95,2481.29 3003,2519.5C 2991.46,2547.05 2971.29,2564.55 2942.5,2572C 2936.38,2573.01 2930.21,2573.51 2924,2573.5C 2907.51,2572.64 2891.01,2571.97 2874.5,2571.5C 2873.46,2597.48 2872.8,2623.48 2872.5,2649.5C 2851.13,2649.03 2829.8,2648.03 2808.5,2646.5C 2810.65,2544.5 2812.99,2442.5 2815.5,2340.5 Z"/></g>
<g><path style="opacity:0.975" fill="#046fb7" d="M 1026.5,2268.5 C 1034.84,2268.33 1043.17,2268.5 1051.5,2269C 1057.23,2271.39 1061.73,2275.23 1065,2280.5C 1076.05,2303.39 1075.71,2326.06 1064,2348.5C 1060.21,2353.31 1055.38,2356.47 1049.5,2358C 1032.84,2359.31 1016.17,2360.48 999.5,2361.5C 998.59,2331.47 997.256,2301.47 995.5,2271.5C 1006,2270.77 1016.34,2269.77 1026.5,2268.5 Z"/></g>
<g><path style="opacity:0.967" fill="#046fb7" d="M 1977.5,2345.5 C 1978.12,2345.61 1978.62,2345.94 1979,2346.5C 1986.77,2385.52 1994.6,2424.52 2002.5,2463.5C 1978,2460.24 1953.66,2456.24 1929.5,2451.5C 1945.31,2416.05 1961.31,2380.72 1977.5,2345.5 Z"/></g>
<g><path style="opacity:0.986" fill="#046fb7" d="M 2304.5,2355.5 C 2340.13,2355.78 2362.79,2373.12 2372.5,2407.5C 2378.94,2438.38 2374.77,2467.71 2360,2495.5C 2339.55,2524.87 2313.05,2532.04 2280.5,2517C 2260.54,2503.61 2249.37,2484.78 2247,2460.5C 2243.29,2430.71 2249.62,2403.38 2266,2378.5C 2276.04,2365.93 2288.87,2358.26 2304.5,2355.5 Z"/></g>
<g><path style="opacity:0.954" fill="#036fb7" d="M 708.5,2358.5 C 721.92,2383.67 734.587,2409.34 746.5,2435.5C 745.975,2436.19 745.308,2436.69 744.5,2437C 725.522,2439.74 706.522,2442.24 687.5,2444.5C 694.186,2415.76 701.186,2387.09 708.5,2358.5 Z"/></g>
<g><path style="opacity:0.987" fill="#046fb7" d="M 3205.5,2402.5 C 3237.91,2401.75 3260.07,2416.41 3272,2446.5C 3279.91,2469.33 3281.57,2492.67 3277,2516.5C 3272.36,2539.33 3259.86,2556.16 3239.5,2567C 3205.61,2578.26 3179.77,2568.43 3162,2537.5C 3149.14,2508.25 3147.14,2478.25 3156,2447.5C 3164.2,2423.12 3180.7,2408.12 3205.5,2402.5 Z"/></g>
<g><path style="opacity:0.961" fill="#036fb7" d="M 358.5,2410.5 C 376.45,2444.23 393.783,2478.4 410.5,2513C 410.355,2513.77 410.022,2514.44 409.5,2515C 385.936,2520.05 362.436,2525.21 339,2530.5C 345.167,2490.49 351.667,2450.49 358.5,2410.5 Z"/></g>
<g><path style="opacity:0.975" fill="#046fb7" d="M 2877.5,2411.5 C 2894.79,2412.47 2912.12,2413.64 2929.5,2415C 2938.73,2418.57 2944.9,2425.07 2948,2434.5C 2955.32,2456.85 2952.66,2477.85 2940,2497.5C 2934.4,2502.81 2927.74,2505.14 2920,2504.5C 2905.18,2503.58 2890.34,2502.92 2875.5,2502.5C 2876.37,2472.17 2877.04,2441.84 2877.5,2411.5 Z"/></g>
<g><path style="opacity:0.967" fill="#046fb7" d="M 2580.5,2500.5 C 2596.53,2501.6 2612.53,2503.1 2628.5,2505C 2639.58,2506.74 2647.08,2512.91 2651,2523.5C 2655.64,2538.69 2652.47,2551.85 2641.5,2563C 2638.38,2564.89 2635.05,2566.23 2631.5,2567C 2613.14,2566.03 2594.81,2564.53 2576.5,2562.5C 2577.92,2541.84 2579.25,2521.17 2580.5,2500.5 Z"/></g>
</svg>
